<?xml version="1.0" encoding="utf-8"?>
<!-- Generator: Adobe Illustrator 16.0.0, SVG Export Plug-In . SVG Version: 6.00 Build 0)  -->
<!DOCTYPE svg PUBLIC "-//W3C//DTD SVG 1.1//EN" "http://www.w3.org/Graphics/SVG/1.1/DTD/svg11.dtd">
<svg version="1.1" id="Layer_1" xmlns="http://www.w3.org/2000/svg" xmlns:xlink="http://www.w3.org/1999/xlink" x="0px" y="0px"
	 width="545px" height="125.1px" viewBox="0 0 545 125.1" style="enable-background:new 0 0 545 125.1;" xml:space="preserve">
<style type="text/css">
<![CDATA[
	.st0{fill:#E2522B;}
	.st1{fill:#E4E4E4;}
	.st2{fill:#B20D7B;}
	.st3{fill:#8AA3A8;}
	.st4{fill:#BEDFEA;}
	.st5{fill:#F7632F;}
	.st6{fill:#FB5152;}
	.st7{fill:#FFFFFF;}
	.st8{fill:#36373A;}
	.st9{fill:#00ADEE;}
	.st10{fill:#00B6FF;}
	.st11{fill:#D823A5;}
]]>
</style>
<g>
	<path class="st9" d="M161.5,32.1c-0.2,0-2.2,0-2.5,0c-0.3,0-0.4-0.3-0.4-0.4v-6.3H151c0,0-4.5,6.5-4.6,6.5c0,0.1-0.1,0.1-0.1,0.1
		c0,0-0.2,0.1-0.2,0.1h-3c-0.2,0-0.3-0.1-0.4-0.3c-0.1-0.1,0-0.3,0.1-0.4c0.1-0.1,14.3-20.3,14.6-20.8c0.4-0.6,1.3-1.4,2.6-1.1
		c1.4,0.4,1.9,1.6,1.9,2.5c0,0.8,0,19.5,0,19.7C161.9,31.9,161.7,32.1,161.5,32.1 M158.6,15.5c0,0,0-0.2-0.2-0.3
		c-0.2-0.1-0.4,0.1-0.4,0.1l-4.7,6.7h5.3V15.5z"/>
	<path class="st8" d="M260.1,13.4h2.5c0.2,0,0.4,0.2,0.4,0.4v1c0,0,0,11.3,0,11.5c0,0.3,0.4,0.5,0.6,0.2c0.2-0.3,8.9-12.9,9-12.9
		c0-0.1,0.1-0.1,0.1-0.1c0,0,0.1-0.1,0.2-0.1h3c0.2,0,0.3,0.1,0.4,0.3c0.1,0.1,0,0.3-0.1,0.4c-0.1,0.1-11.7,16.7-12.1,17.2
		c-0.4,0.6-1.3,1.3-2.6,1.1c-1.4-0.4-1.9-1.6-1.9-2.5V14.9v-1C259.6,13.6,259.9,13.4,260.1,13.4"/>
	<path class="st9" d="M176.5,32.5c-2.5,0-5.2-0.9-6.5-3.1h-0.1v8.4c0,0.2-0.2,0.4-0.4,0.4h-2.6c-0.2,0-0.4-0.2-0.4-0.4V16.4
		c0-0.2,0.2-0.4,0.4-0.4h1.2c0.5,0,1.5-0.1,2.6-0.9c0.8-0.6,2.9-2,5.6-2c5.7,0,9.6,4.4,9.6,10C185.8,28.3,181.8,32.5,176.5,32.5
		 M176,16.2c-3.6,0-6.2,3.1-6.2,6.6c0,3.6,2.6,6.6,6.3,6.6c3.6,0,6.2-3,6.2-6.5C182.3,19.3,179.6,16.2,176,16.2"/>
	<path class="st9" d="M199.1,32.5c-2.5,0-5.2-0.9-6.5-3.1h-0.1v8.4c0,0.2-0.2,0.4-0.4,0.4h-2.6c-0.2,0-0.4-0.2-0.4-0.4V16.4
		c0-0.2,0.2-0.4,0.4-0.4h1.2c0.5,0,1.5-0.1,2.6-0.9c0.8-0.6,2.9-2,5.6-2c5.7,0,9.6,4.4,9.6,10C208.5,28.3,204.4,32.5,199.1,32.5
		 M198.6,16.2c-3.6,0-6.2,3.1-6.2,6.6c0,3.6,2.6,6.6,6.3,6.6c3.6,0,6.2-3,6.2-6.5C205,19.3,202.2,16.2,198.6,16.2"/>
	<path class="st8" d="M236.8,22.8c-0.9,3.8-3.3,6.8-7,8.5c-1.7,0.8-3.5,1.2-5.4,1.2c-7.1,0-12.7-5.7-12.7-12.8
		c0-7.1,5.5-12.9,12.6-12.9c4.4,0,8.4,2.3,10.7,6c0,0,0,0,0,0c0.2,0.3,0,0.7-0.4,0.7h-3.2c-0.2,0-0.3-0.1-0.3-0.2
		c-1.8-2-3.8-3.2-6.6-3.2c-5.2,0-9.2,4.5-9.2,9.6c0,5,4.1,9.5,9.2,9.5c3.8,0,6.9-2.3,8.3-5.7c0.1-0.1,0-0.2,0-0.3
		c0-0.1-0.1-0.1-0.2-0.1H222c-0.3,0-0.5-0.2-0.5-0.4v-2.4c0-0.2,0.2-0.4,0.4-0.4h12.5c0.6,0,1.3,0.2,1.7,0.7
		C236.6,21,237,21.8,236.8,22.8"/>
	<path class="st8" d="M292.8,24.3h-12.9c0.7,2.9,3,5,6.1,5c2.1,0,4.1-1.1,5.1-2.8c0,0,0,0,0,0c0-0.1,0.2-0.2,0.4-0.2h2.6
		c0.3,0,0.5,0.3,0.4,0.6c0,0,0,0,0,0c-1.5,3.4-4.8,5.6-8.6,5.6c-5.3,0-9.4-4.6-9.4-9.8c0-5.3,4.1-9.7,9.5-9.7c4.9,0,8.8,3.7,9.4,8.5
		c0,0,0,0,0,0.1C295.5,22.7,294.6,24.3,292.8,24.3 M291.9,21.3C291.9,21.2,291.9,21.2,291.9,21.3c-0.4-2.9-3.1-5-5.9-5
		c-3,0-5.8,2.4-6,5.4h11.6C291.8,21.6,291.9,21.5,291.9,21.3"/>
	<path class="st8" d="M308.1,16.2C308.1,16.2,308.1,16.2,308.1,16.2c-1.3,0.1-2.8,0.7-3.8,1.8c-1.3,1.4-1.8,2.9-1.8,3.9v9.7
		c0,0.2-0.2,0.4-0.4,0.4h-2.6c-0.2,0-0.4-0.2-0.4-0.4V16.4c0-0.4,0.4-0.4,0.4-0.4c0.1,0,0.4,0,1.1,0c1.5,0,2.4-0.7,3.1-1.2
		c0.7-0.5,2.4-1.5,4.3-1.7c0,0,0,0,0.1,0c0.3,0,0.5,0.2,0.5,0.4v2.3C308.6,16,308.4,16.2,308.1,16.2"/>
	<path class="st8" d="M243.6,27.2V13.8c0-0.2-0.2-0.4-0.4-0.4h-2.6c-0.3,0-0.4,0.3-0.4,0.4v18.3l-0.1,0.2c0,0-3.5,4.9-3.7,5.2
		c-0.2,0.3,0,0.7,0.3,0.7c0.4,0,3.1,0,3.2,0c0.1,0,0.3-0.1,0.4-0.2c1.6-2.3,16.7-23.6,16.9-23.9c0.2-0.3,0-0.7-0.4-0.7
		c-0.3,0-3,0-3.2,0c-0.2,0-0.3,0.1-0.4,0.2c-0.1,0.1-9.3,13.2-9.3,13.2L243.6,27.2z"/>
	<path class="st8" d="M141.3,106.5l9.6-14.1c5,5,12.8,9.2,22.5,9.2c6.1,0,9.9-2.1,9.9-5.6c0-9.3-39.6-1.6-39.6-28.6
		c0-11.8,9.9-22.3,27.8-22.3c11.2,0,21,3.4,28.5,9.8l-9.9,13.6c-5.9-4.9-13.6-7.4-20.5-7.4c-5.3,0-7.6,1.8-7.6,4.8
		c0,8.6,39.6,2.1,39.6,28.2c0,14.1-10.4,23.4-29.2,23.4C158.2,117.6,148.3,113.1,141.3,106.5"/>
	<path class="st8" d="M209.6,102.7V79.6h-8.4v-14h8.4V51.8h16.2v13.9h10.3v14h-10.3v18.6c0,2.9,1.7,5.1,4.4,5.1
		c1.8,0,3.6-0.6,4.1-1.3l3.2,12.2c-2,1.9-6,3.4-12,3.4C215.2,117.6,209.6,112.5,209.6,102.7"/>
	<path class="st8" d="M238.7,90.9c0-14.7,11-26.6,26.9-26.6c15,0,26,11,26,28.3v3.7h-36.1c1.2,4.5,5.4,8.3,12.7,8.3
		c3.6,0,9.5-1.6,12.4-4.3l7,10.6c-5,4.5-13.4,6.7-21.2,6.7C250.7,117.6,238.7,107.4,238.7,90.9 M265.6,77.4c-7,0-9.8,4.2-10.4,7.9
		h20.9C275.7,81.7,273.1,77.4,265.6,77.4"/>
	<path class="st8" d="M296.4,116.4V65.6h16.2v6.2c3.4-4.1,9.9-7.6,15.9-7.6v15.6c-0.9-0.3-2.3-0.4-4-0.4c-4.2,0-9.8,1.8-11.9,4.6
		v32.4H296.4z"/>
	<path class="st8" d="M329.9,90.9c0-14.3,10.3-26.6,27.5-26.6c17.4,0,27.7,12.3,27.7,26.6c0,14.3-10.3,26.7-27.7,26.7
		C340.2,117.6,329.9,105.2,329.9,90.9 M368.6,90.9c0-6.7-4-12.3-11.1-12.3c-6.9,0-10.9,5.6-10.9,12.3c0,6.8,4,12.4,10.9,12.4
		C364.6,103.3,368.6,97.8,368.6,90.9"/>
	<path class="st8" d="M389.9,51.8c0-5.1,4.1-9.2,9.2-9.2s9.4,4.1,9.4,9.2c0,5.2-4.2,9.4-9.4,9.4S389.9,56.9,389.9,51.8 M391,65.6
		h16.2v50.8H391V65.6z"/>
	<path class="st8" d="M450.5,116.4v-5.9c-4.2,4.8-9.4,7.1-15,7.1c-12.5,0-22.4-9.5-22.4-26.7c0-16.6,9.7-26.6,22.4-26.6
		c5.6,0,11,2.2,15,7.3V46.3h16.1v70.1H450.5z M450.5,98.7V83.2c-2.1-2.7-6.3-4.5-9.8-4.5c-6.4,0-11.1,4.7-11.1,12.3
		s4.7,12.4,11.1,12.4C444.2,103.3,448.4,101.5,450.5,98.7"/>
	<path class="st8" d="M472,109.8l6.7-11.6c3.8,3.4,11.9,6.8,17.9,6.8c4.8,0,6.8-1.4,6.8-3.6c0-6.3-29.5,0.2-29.5-20.4
		c0-8.9,7.8-16.7,21.7-16.7c8.6,0,15.8,2.7,21.2,6.7l-6.2,11.5c-3-2.9-8.8-5.6-14.9-5.6c-3.8,0-6.3,1.5-6.3,3.5
		c0,5.6,29.4-0.2,29.4,20.6c0,9.7-8.5,16.6-23,16.6C486.8,117.6,477.4,114.6,472,109.8"/>
	<path class="st8" d="M108,64.3h-0.9H62.5v22.3h44.7h0.5c1,0,2.7-17.7,2.7-18.7c0,0-0.8-1.9-1.1-2.7C109,64.4,108.4,64.3,108,64.3"
		/>
	<path class="st8" d="M62.8,112.9L47.6,97.7l0,0l0,0l0,0L28.4,78.4l-1-1l0,0L12.2,62.3L7.4,58l-2.5,5.5l-1.6,3.4L0,74.9V75v3.1v0.1
		c0,2.9,1.3,4.6,2.6,6c0.2,0.2,1,1,2.3,2.3c1.8,1.8,4.5,4.5,7.4,7.5l0,0c0,0,1,1,2.5,2.5c7.8,7.8,16.3,16.3,16.3,16.3l0.1,0
		c0.3,0.3,0.6,0.6,0.9,0.9c4.6,4.6,8.4,8.4,8.9,8.8c1.3,1.3,3.1,2.6,6,2.6h3.2l8.1-3.3l8.9-4.1l-3.6-4L62.8,112.9z"/>
	<path class="st8" d="M118.1,36.3L106.8,25L93.9,12.1l-0.6-0.6c-0.1-0.1-0.2-0.2-0.3-0.2c-3.9-3.9-8.1-8-8.7-8.7
		c-1.3-1.3-3.1-2.6-6-2.6h-3.2L67,3.3l-8.9,4.1l3.8,4.3l0.4,0.5l27.4,27.5l0-0.1l12.2,12.2c0.3,0.3,2.5-1.2,5.1-3.2
		c4.2-3.2,9.6-7.6,10-8c0,0,0.8-1.9,1.1-2.7C118.6,37.1,118.3,36.6,118.1,36.3"/>
	<path class="st4" d="M107.2,23.4c0-6.4-5.2-11.5-11.5-11.5H17.9c-6.4,0-11.5,5.2-11.5,11.5v77.7c0,6.4,5.2,11.5,11.5,11.5h77.7
		c6.4,0,11.5-5.2,11.5-11.5V23.4z"/>
	<path class="st3" d="M65.9,54.1L49.4,37.5L30,83.5l-8.5,1l28.2,28.2h39.9l1.7-0.8l0.8,0.8h3.6c6.4,0,11.5-5.2,11.5-11.5V69.3
		L68.7,30.9L65.9,54.1z"/>
	<path class="st7" d="M83.7,65.2l-21.7-4l-0.3-0.1l9.1-9.5c5.2-5.4,5-14-0.4-19.2L69.8,32l-0.5-0.5c-5.4-5.2-13.9-5-19,0.4l-15.3,16
		L19.6,64c-5.2,5.4-5,14,0.4,19.2l0.5,0.5l0.5,0.5c4.6,4.5,11.5,5,16.6,1.6l9.2,1.5l10,2.1l21.7,4c7.3,1.4,14.3-3.5,15.7-10.9
		l0.1-0.7l0.1-0.7C95.8,73.6,91,66.6,83.7,65.2"/>
	<path class="st5" d="M61.6,61.1l-6.2,6.5l0,0l-15.3,16c-0.7,0.8-1.5,1.4-2.4,2l19.1,3.5l2.6-14l2.6-14L61.6,61.1z"/>
	<path class="st11" d="M55.4,67.7l6.2-6.5l9.1-9.5c5.2-5.4,5-14-0.4-19.2L69.8,32l-0.5-0.5c-5.4-5.2-13.9-5-19,0.4l-15.3,16
		l10.2,9.9l0,0l0,0L55.4,67.7z"/>
	<path class="st1" d="M83.7,65.2l-21.7-4l-2.6,14l35,6.5l0.1-0.7C95.8,73.6,91,66.6,83.7,65.2"/>
	<path class="st1" d="M40.1,83.7l15.3-16l0,0l-10.2-9.9l0,0L20.6,83.6l0.5,0.5c4.6,4.4,11.5,5,16.6,1.6
		C38.6,85.2,39.4,84.5,40.1,83.7"/>
	<polygon class="st0" points="49.9,73.5 59.4,75.2 61.9,61.2 61.6,61.1 55.4,67.7 	"/>
	<path class="st2" d="M55.4,67.7l6.3-6.6l9.1-9.5c5.2-5.4,5-14-0.4-19.2L69.8,32L45.2,57.8L55.4,67.7z"/>
	<path class="st10" d="M62.5,40.1v18.8c0,1,0.8,1.8,1.8,1.8h24.2v0c0,0,5.3,0,10.4,0h8.7c0,0,0,0,0,0c0.3,0,0.5,0,0.6,0
		c0.6,0,1.1-0.4,1.3-0.8c0.2-0.6,9.1-22.2,9.1-22.2c-0.2,0.4-0.7,0.8-1.3,0.8c-1.3,0-30,0-30,0H64.3C63.3,38.3,62.5,39.1,62.5,40.1"
		/>
	<path class="st10" d="M78.2,0H46.7c-1.5,0-2.8,0.4-3.9,1c0,0,0,0-0.1,0c-0.1,0.1-0.2,0.1-0.3,0.2c-0.6,0.3-1.1,0.7-1.7,1.2
		c-0.8,0.8-8.8,8.8-17.3,17.3c-0.3,0.2-0.6,0.5-0.8,0.7C20.9,22.1,2.4,40.5,2.4,40.5C1.2,41.8,0,43.9,0,46.4v0.1V78v0.1
		c0-1.8,0.6-4.1,2.4-5.9c0.3-0.3,2.9-2.9,6.7-6.7l0,0c0,0,61.5-61.4,63.2-63.2C74.1,0.6,76.4,0,78.2,0"/>
	<path class="st10" d="M118.4,87.4c-0.2-0.6-9.1-22.2-9.1-22.2c0,0.1,0.1,0.2,0.1,0.3c-0.1-0.2-0.1-0.3-0.1-0.3
		c0.2,0.4,0.1,1-0.3,1.4c-0.9,0.9-21.2,21.1-21.2,21.1l0,0c-13.7,13.6-33.9,33.8-35,35c-1.8,1.7-4,2.4-5.9,2.4h31.6
		c2.6,0,4.7-1.2,5.9-2.4c0,0,14-14,19.9-20l0,0c0,0,0,0,0,0l0,0c0,0,13.5-13.5,13.9-13.9C118.6,88.4,118.6,87.8,118.4,87.4"/>
	<g>
		<path class="st6" d="M522.5,69.5v-5.8c12.4-9,14.7-11,14.7-13.8c0-1.9-1.8-3-4-3c-3.2,0-5.6,1.2-7.6,3.1l-4.1-4.9
			c3.1-3.4,7.6-4.8,11.6-4.8c6.7,0,11.6,3.8,11.6,9.5c0,4.4-3.1,8.2-10.3,13.1H545v6.4H522.5z"/>
	</g>
</g>
</svg>
