<?xml version="1.0" encoding="utf-8"?>
<!-- Generator: Adobe Illustrator 16.0.0, SVG Export Plug-In . SVG Version: 6.00 Build 0)  -->
<!DOCTYPE svg PUBLIC "-//W3C//DTD SVG 1.1//EN" "http://www.w3.org/Graphics/SVG/1.1/DTD/svg11.dtd">
<svg version="1.1" id="Layer_1" xmlns="http://www.w3.org/2000/svg" xmlns:xlink="http://www.w3.org/1999/xlink" x="0px" y="0px"
	 width="520.7px" height="140.2px" viewBox="0 0 520.7 140.2" style="enable-background:new 0 0 520.7 140.2;" xml:space="preserve"
	>
<style type="text/css">
<![CDATA[
	.st0{fill:#FB5152;}
	.st1{fill:#313949;}
	.st2{fill:#36373A;}
]]>
</style>
<g>
	<path class="st2" d="M142,93.6l7.1-10.5c3.8,3.8,9.6,6.9,16.8,6.9c4.5,0,7.4-1.6,7.4-4.2c0-6.9-29.5-1.2-29.5-21.3
		c0-8.8,7.4-16.6,20.7-16.6c8.4,0,15.7,2.5,21.2,7.3l-7.4,10.1c-4.4-3.7-10.1-5.5-15.3-5.5c-3.9,0-5.6,1.3-5.6,3.6
		c0,6.4,29.5,1.6,29.5,21c0,10.5-7.8,17.5-21.8,17.5C154.6,101.9,147.3,98.5,142,93.6"/>
	<path class="st2" d="M216.1,100.9v-4.5c-2.3,2.7-6.7,5.5-13.1,5.5c-8.5,0-12.4-4.9-12.4-11.8V63.1h12.1V85c0,4.6,2.3,6.2,6.3,6.2
		c3.4,0,5.8-1.9,7.2-3.7V63.1h12.1v37.8H216.1z"/>
	<path class="st2" d="M246.6,96.5v18.9h-12.1V63.1h12.1v4.4c3-3.6,6.9-5.3,11.2-5.3c9.5,0,16.6,7,16.6,19.8
		c0,12.8-7.1,19.9-16.6,19.9C253.6,101.9,249.7,100.2,246.6,96.5 M262.1,82c0-5.6-3.6-9.2-8.3-9.2c-2.6,0-5.7,1.4-7.2,3.4v11.5
		c1.5,2,4.6,3.4,7.2,3.4C258.5,91.2,262.1,87.7,262.1,82"/>
	<path class="st2" d="M276.3,82c0-11,8.2-19.8,20-19.8c11.2,0,19.3,8.2,19.3,21.1V86h-26.9c0.9,3.4,4,6.2,9.5,6.2
		c2.7,0,7-1.2,9.2-3.2l5.2,7.9c-3.8,3.4-10,5-15.8,5C285.2,101.9,276.3,94.3,276.3,82 M296.3,71.9c-5.2,0-7.3,3.1-7.8,5.9h15.6
		C303.8,75.1,301.9,71.9,296.3,71.9"/>
	<path class="st2" d="M319.2,100.9V63.1h12.1v4.6c2.5-3.1,7.4-5.6,11.8-5.6v11.6c-0.7-0.2-1.7-0.3-3-0.3c-3.1,0-7.3,1.3-8.8,3.4
		v24.1H319.2z"/>
	<path class="st2" d="M343,96l5-8.6c2.8,2.5,8.8,5.1,13.3,5.1c3.6,0,5.1-1,5.1-2.7c0-4.7-22,0.2-22-15.2c0-6.7,5.8-12.4,16.2-12.4
		c6.4,0,11.7,2,15.8,5l-4.6,8.5c-2.3-2.2-6.6-4.1-11.1-4.1c-2.8,0-4.7,1.1-4.7,2.6c0,4.2,21.9-0.2,21.9,15.3
		c0,7.2-6.3,12.4-17.1,12.4C354,101.9,347,99.6,343,96"/>
	<path class="st2" d="M379.4,82c0-10.6,7.7-19.8,20.5-19.8c13,0,20.7,9.2,20.7,19.8c0,10.6-7.7,19.9-20.7,19.9
		C387,101.9,379.4,92.6,379.4,82 M408.2,82c0-5-3-9.2-8.3-9.2c-5.2,0-8.1,4.1-8.1,9.2c0,5.1,3,9.2,8.1,9.2
		C405.2,91.2,408.2,87.1,408.2,82"/>
	<path class="st2" d="M450.1,100.9V79.1c0-4.6-2.4-6.3-6.2-6.3c-3.6,0-6,2-7.4,3.7v24.4h-12.1V63.1h12.1v4.6
		c2.3-2.7,6.7-5.6,13.2-5.6c8.5,0,12.4,5,12.4,12v26.8H450.1z"/>
	<path class="st2" d="M467.7,52.8c0-3.8,3.1-6.9,6.9-6.9c3.8,0,7,3.1,7,6.9s-3.1,7-7,7C470.8,59.7,467.7,56.6,467.7,52.8
		 M468.6,63.1h12.1v37.8h-12.1V63.1z"/>
	<path class="st2" d="M484.7,82c0-11.8,8.8-19.8,20.6-19.8c8.2,0,13.2,3.6,15.5,7l-7.8,7.3c-1.5-2.2-3.9-3.6-7.1-3.6
		c-5,0-8.8,3.4-8.8,9.2s3.8,9.2,8.8,9.2c3.2,0,5.6-1.6,7.1-3.7l7.8,7.4c-2.3,3.3-7.3,7-15.5,7C493.4,101.9,484.7,93.8,484.7,82"/>
	<path class="st1" d="M107.8,111.7L4.6,66.7c-2.8-1.2-4.6-4-4.6-7V35.5c0-4.3,4.4-7.2,8.4-5.5l99.9,43.6c2.8,1.2,4.6,4,4.6,7v27.7
		C112.9,110.9,110.2,112.7,107.8,111.7"/>
	<path class="st0" d="M112.1,22.2L65.5,1.9c-5.8-2.5-12.5-2.5-18.3,0L8.1,19C3.2,21.1,0,26,0,31.3v28.2c0,1.8,0.3,2.6,0.8,3.5
		c0.4-1.8,2.1-3.6,3.5-4.2l44.7-20.2c4.7-2.1,10.2-2.1,14.9,0l47.3,21.3c0.9,0.4,1.8-0.2,1.8-1.2V23.3
		C112.9,22.8,112.6,22.4,112.1,22.2"/>
	<path class="st0" d="M0.8,118.1l46.6,20.3c5.8,2.5,12.5,2.5,18.3,0l39.1-17.1c4.9-2.1,8.1-7,8.1-12.4V80.7c0-1.8-0.3-2.6-0.8-3.5
		c-0.4,1.8-2.1,3.6-3.5,4.2L64,101.6c-4.7,2.1-10.2,2.1-14.9,0L1.9,80.4C1,80,0,80.6,0,81.6v35.3C0,117.4,0.3,117.9,0.8,118.1"/>
</g>
</svg>
